<?xml version="1.0" encoding="utf-8"?>
<!-- Generator: Adobe Illustrator 16.0.4, SVG Export Plug-In . SVG Version: 6.00 Build 0)  -->
<!DOCTYPE svg PUBLIC "-//W3C//DTD SVG 1.1//EN" "http://www.w3.org/Graphics/SVG/1.1/DTD/svg11.dtd">
<svg version="1.1" id="Rectangle_arrondi_2_1_" xmlns="http://www.w3.org/2000/svg" xmlns:xlink="http://www.w3.org/1999/xlink"
	 x="0px" y="0px" width="24px" height="48px" viewBox="0 0 24 48" enable-background="new 0 0 24 48" xml:space="preserve">
<path fill-rule="evenodd" clip-rule="evenodd" fill="none" stroke="#34B1BC" stroke-width="2" stroke-miterlimit="10" d="M5,25h14
	c2.209,0,4,1.791,4,4v14c0,2.209-1.791,4-4,4H5c-2.209,0-4-1.791-4-4V29C1,26.791,2.791,25,5,25z"/>
<path fill-rule="evenodd" clip-rule="evenodd" fill="none" stroke="#D5D5D5" stroke-width="2" stroke-miterlimit="10" d="M5,1h14
	c2.209,0,4,1.791,4,4v14c0,2.209-1.791,4-4,4H5c-2.209,0-4-1.791-4-4V5C1,2.791,2.791,1,5,1z"/>
<path fill-rule="evenodd" clip-rule="evenodd" fill="#34B1BC" d="M8.636,35.069l1.763,2.966c0,0,2.864-6.026,7.381-8.035
	c-0.109,1.435-0.551,2.679,0.221,4.209c-1.982,0.382-6.059,4.687-7.381,6.791C8.746,38.991,6.542,37.461,5,36.982L8.636,35.069z"/>
</svg>
