<?xml version="1.0" encoding="utf-8"?>
<!-- Generator: Adobe Illustrator 16.0.4, SVG Export Plug-In . SVG Version: 6.00 Build 0)  -->
<!DOCTYPE svg PUBLIC "-//W3C//DTD SVG 1.1//EN" "http://www.w3.org/Graphics/SVG/1.1/DTD/svg11.dtd">
<svg version="1.1" xmlns="http://www.w3.org/2000/svg" xmlns:xlink="http://www.w3.org/1999/xlink" x="0px" y="0px" width="201px"
	 height="201px" viewBox="0 0 201 201" enable-background="new 0 0 201 201" xml:space="preserve">
<g id="Calque_4_-_copie">
	<path fill="#9CD8DC" d="M100.5,0.5c-55.229,0-100,44.771-100,100s44.771,100,100,100s100-44.771,100-100S155.729,0.5,100.5,0.5z
		 M143.849,59.736c8.169,0,14.792,6.623,14.792,14.792c0,8.169-6.623,14.792-14.792,14.792s-14.792-6.623-14.792-14.792
		C129.057,66.358,135.68,59.736,143.849,59.736z M100.619,30.81c11.863,0,21.479,9.617,21.479,21.48s-9.616,21.479-21.479,21.479
		c-11.863,0-21.479-9.617-21.479-21.479S88.756,30.81,100.619,30.81z M57.39,59.736c8.169,0,14.792,6.623,14.792,14.792
		c0,8.169-6.622,14.792-14.792,14.792c-8.169,0-14.792-6.623-14.792-14.792C42.599,66.358,49.221,59.736,57.39,59.736z
		 M59.688,110.259v33.677H33.97v-27.993c0-12.525,10.485-22.68,23.42-22.68c2.092,0,4.119,0.267,6.048,0.765
		C61.035,98.951,59.688,104.453,59.688,110.259z M134.629,143.937H66.61v-31.503c0-18.19,15.227-32.936,34.009-32.936
		c18.783,0,34.01,14.746,34.01,32.936V143.937z M167.269,143.937H141.55v-33.677c0-5.806-1.346-11.308-3.749-16.23
		c1.93-0.498,3.956-0.765,6.048-0.765c12.935,0,23.42,10.154,23.42,22.68V143.937z"/>
</g>
<g id="Calque_2">
</g>
<g id="Calque_2_-_copie">
</g>
<g id="Calque_4">
</g>
</svg>
