<?xml version="1.0" encoding="utf-8"?>
<!-- Generator: Adobe Illustrator 16.0.4, SVG Export Plug-In . SVG Version: 6.00 Build 0)  -->
<!DOCTYPE svg PUBLIC "-//W3C//DTD SVG 1.1//EN" "http://www.w3.org/Graphics/SVG/1.1/DTD/svg11.dtd">
<svg version="1.1" id="Calque_2" xmlns="http://www.w3.org/2000/svg" xmlns:xlink="http://www.w3.org/1999/xlink" x="0px" y="0px"
	 width="20px" height="20px" viewBox="0 0 20 20" enable-background="new 0 0 20 20" xml:space="preserve">
<path fill="#FFFFFF" d="M14.698,10l4.968-4.968c0.464-0.464,0.443-1.238-0.047-1.728l-2.923-2.922
	c-0.49-0.49-1.264-0.512-1.728-0.047L10,5.303L5.032,0.335C4.568-0.129,3.795-0.108,3.305,0.382L0.382,3.304
	c-0.49,0.49-0.512,1.264-0.047,1.728L5.303,10l-4.968,4.968c-0.464,0.464-0.443,1.237,0.047,1.728l2.922,2.922
	c0.49,0.49,1.264,0.512,1.728,0.048L10,14.698l4.968,4.968c0.464,0.464,1.237,0.442,1.728-0.048l2.923-2.922
	c0.49-0.49,0.511-1.264,0.047-1.728L14.698,10z"/>
</svg>
