<?xml version="1.0" encoding="utf-8"?>
<!-- Generator: Adobe Illustrator 16.0.4, SVG Export Plug-In . SVG Version: 6.00 Build 0)  -->
<!DOCTYPE svg PUBLIC "-//W3C//DTD SVG 1.1//EN" "http://www.w3.org/Graphics/SVG/1.1/DTD/svg11.dtd">
<svg version="1.1" id="Forme_1_1_" xmlns="http://www.w3.org/2000/svg" xmlns:xlink="http://www.w3.org/1999/xlink" x="0px" y="0px"
	 width="200px" height="200px" viewBox="0 0 200 200" enable-background="new 0 0 200 200" xml:space="preserve">
<path fill="#9CD8DC" d="M100,0C44.771,0,0,44.772,0,100c0,55.229,44.771,100,100,100s100-44.771,100-100C200,44.772,155.229,0,100,0
	z M124.332,125.014c-12.386,8.767-22.992,21.085-24.27,26.083c-1.492-5.1-11.015-17.08-24.394-25.837
	c-13.798-9.03-34.522-17.474-34.364-40.062c0.284-41.128,43.474-49.397,58.669-13.96c14.496-34.023,58.437-27.516,58.723,13.715
	C158.854,107.54,137.874,115.429,124.332,125.014z"/>
</svg>
