<?xml version="1.0" encoding="utf-8"?>
<!-- Generator: Adobe Illustrator 16.0.4, SVG Export Plug-In . SVG Version: 6.00 Build 0)  -->
<!DOCTYPE svg PUBLIC "-//W3C//DTD SVG 1.1//EN" "http://www.w3.org/Graphics/SVG/1.1/DTD/svg11.dtd">
<svg version="1.1"
	 id="svg2" xmlns:dc="http://purl.org/dc/elements/1.1/" xmlns:cc="http://creativecommons.org/ns#" xmlns:rdf="http://www.w3.org/1999/02/22-rdf-syntax-ns#" xmlns:svg="http://www.w3.org/2000/svg" xmlns:sodipodi="http://sodipodi.sourceforge.net/DTD/sodipodi-0.dtd" xmlns:inkscape="http://www.inkscape.org/namespaces/inkscape" inkscape:version="0.48.0 r9654" sodipodi:version="0.32" inkscape:output_extension="org.inkscape.output.svg.inkscape" sodipodi:docname="home_alt.svg"
	 xmlns="http://www.w3.org/2000/svg" xmlns:xlink="http://www.w3.org/1999/xlink" x="0px" y="0px" width="36.994px" height="35px"
	 viewBox="45.503 46.598 36.994 35" enable-background="new 45.503 46.598 36.994 35" xml:space="preserve">
<g id="layer1" transform="translate(-46.78328,-570.69332)" inkscape:label="Layer 1" inkscape:groupmode="layer">
	<g id="g2986" transform="matrix(0.36866748,0,0,0.36866748,7.7551537,456.71944)">
		<path id="rect2391" sodipodi:nodetypes="cccccccccccccccccc" inkscape:connector-curvature="0" fill="#34B1BC" d="
			M314.692,483.805L314.692,483.805z M314.692,483.805l-35.22-31.191l-35.24,31.204v44.588c0,1.152,0.93,2.077,2.082,2.077h22.024
			v-19.552c0-1.15,0.923-2.082,2.074-2.082h18.097c1.152,0,2.074,0.932,2.074,2.082v19.552h22.031c1.15,0,2.077-0.924,2.077-2.077
			V483.805z M244.232,483.817L244.232,483.817z"/>
		<path id="path2399" inkscape:connector-curvature="0" fill="#34B1BC" d="M279.268,435.546L229.288,479.8l5.265,5.94l44.919-39.777
			l44.909,39.777l5.253-5.94l-49.969-44.254l-0.193,0.224L279.268,435.546L279.268,435.546z"/>
		<path id="rect2404" sodipodi:nodetypes="ccccc" inkscape:connector-curvature="0" fill="#34B1BC" d="M244.232,441.915h12.67
			l-0.11,7.504l-12.56,11.347V441.915L244.232,441.915z"/>
	</g>
</g>
</svg>
