<?xml version="1.0" encoding="utf-8"?>
<!-- Generator: Adobe Illustrator 16.0.4, SVG Export Plug-In . SVG Version: 6.00 Build 0)  -->
<!DOCTYPE svg PUBLIC "-//W3C//DTD SVG 1.1//EN" "http://www.w3.org/Graphics/SVG/1.1/DTD/svg11.dtd">
<svg version="1.1" id="Calque_1" xmlns="http://www.w3.org/2000/svg" xmlns:xlink="http://www.w3.org/1999/xlink" x="0px" y="0px"
	 width="550px" height="165.742px" viewBox="0 0 550 165.742" enable-background="new 0 0 550 165.742" xml:space="preserve">
<g>
	<path fill="#FFFFFF" d="M242.294,112.186l-12.359-21.753l-12.261,21.753h-10.976L198.196,66.9h11.766l5.142,27.092l9.492-16.71
		h10.679l9.591,16.71l5.142-27.092h11.667l-8.503,45.286H242.294z"/>
	<path fill="#FFFFFF" d="M289.658,113.273c-2.867,0-5.834-0.692-8.603-1.978c-2.57-1.088-4.943-2.868-7.119-5.142
		c-3.46-3.758-5.537-8.701-6.031-13.843c-0.099-0.89-0.198-1.78-0.198-2.769c0-1.978,0.296-4.055,0.791-6.131
		c0.89-3.955,2.768-7.613,5.438-10.382c1.978-2.175,4.252-3.856,7.119-5.24c2.67-1.286,5.637-1.879,8.701-1.879
		c3.164,0,6.031,0.593,8.701,1.879c2.967,1.384,5.34,3.164,7.119,5.24c2.571,2.769,4.549,6.328,5.537,10.382
		c0.494,1.879,0.692,3.856,0.692,6.131c0,0.791,0,1.582,0,2.273h-33.223l0.099,0.692c1.285,6.131,5.933,10.58,11.074,10.58h0.1
		c2.867-0.198,6.031-1.978,7.91-3.56l1.087-0.89l8.207,7.119l-1.483,1.285c-1.088,0.989-2.472,2.175-3.955,2.966h-0.099
		c-3.56,2.077-7.416,3.164-11.767,3.264H289.658z M279.967,83.017l-0.395,0.791h20.467l-0.396-0.791
		c-2.274-4.251-6.031-6.822-9.888-6.822C285.901,76.194,282.044,78.864,279.967,83.017z"/>
	<path fill="#9CD8DC" d="M331.384,112.087c-4.944-0.989-9.591-3.164-13.25-6.427l-1.483-1.188l7.416-8.206l1.385,1.285
		c4.351,3.658,7.91,4.351,10.184,4.351c1.682,0,2.868-0.197,4.055-0.791c1.482-0.594,2.175-1.582,2.175-2.967
		c0-1.186-0.692-2.669-6.525-3.658c-5.34-1.088-8.701-2.175-10.283-3.064c-2.077-1.188-3.758-2.77-4.944-4.746
		c-1.187-1.979-1.779-4.153-1.779-6.625c0-2.571,0.791-5.043,2.373-7.317c1.285-1.878,3.164-3.361,5.933-4.746
		c2.274-1.087,4.845-1.582,7.91-1.582c1.087,0,2.175,0.099,3.164,0.198c4.351,0.692,8.701,2.57,12.261,5.339l1.482,1.187
		l-7.02,8.108l-1.385-1.088c-3.461-2.769-6.427-3.263-8.207-3.263c-1.285,0-2.472,0.197-3.559,0.692
		c-1.286,0.692-1.979,1.78-1.979,2.472c0,1.384,0.989,2.373,6.131,3.56c6.724,1.582,8.898,2.373,10.283,2.966
		c2.769,1.582,3.955,2.867,4.943,4.153c1.483,2.076,2.176,4.647,2.176,7.415c0,2.868-0.791,5.438-2.274,7.516
		c-1.483,2.076-3.46,3.855-6.328,5.24c-2.274,1.088-5.24,1.681-8.206,1.681C334.647,112.581,333.164,112.383,331.384,112.087z"/>
	<path fill="#9CD8DC" d="M392.49,112.186V87.961c0-5.34-4.251-9.492-9.591-9.492c-5.142,0-9.591,4.251-9.591,9.492v24.225h-12.36
		V39.61h12.36v30.553c3.065-3.065,6.328-4.153,9.591-4.153c5.933,0,11.47,2.274,15.623,6.328c4.152,4.252,6.427,9.789,6.427,15.623
		v24.225H392.49z"/>
	<path fill="#9CD8DC" d="M419.68,106.253c-4.449-4.548-6.922-10.481-6.922-16.71c0-6.229,2.473-12.162,6.922-16.71
		c4.449-4.45,10.382-6.823,16.71-6.823c4.153,0,7.91,1.483,11.173,4.45l0.494,0.396V66.9h11.965v45.286h-11.965v-3.56l-0.494,0.494
		c-3.56,3.461-7.613,3.955-11.173,3.955C430.161,113.075,424.228,110.702,419.68,106.253z M424.723,89.543
		c0,6.525,5.339,11.964,11.667,11.964s11.667-5.438,11.667-11.964c0-6.427-5.339-11.964-11.667-11.964
		S424.723,83.116,424.723,89.543z"/>
	<path fill="#9CD8DC" d="M472.48,112.186V66.9h12.459v3.659c3.56-3.56,8.898-4.746,12.458-4.746h2.967l-2.967,12.359h-1.879
		c-5.833,0-10.579,4.548-10.579,9.986v24.027H472.48z"/>
	<path fill="#9CD8DC" d="M524.985,113.273c-2.867,0-5.834-0.692-8.603-1.978c-2.57-1.088-4.943-2.868-7.119-5.142
		c-3.46-3.758-5.537-8.701-6.031-13.843c-0.099-0.89-0.198-1.78-0.198-2.769c0-1.978,0.297-4.055,0.791-6.131
		c0.891-3.955,2.77-7.613,5.438-10.382c1.978-2.175,4.252-3.856,7.119-5.24c2.67-1.286,5.636-1.879,8.701-1.879
		c3.164,0,6.032,0.593,8.701,1.879c2.967,1.384,5.34,3.164,7.119,5.24c2.571,2.769,4.549,6.328,5.537,10.382
		c0.495,1.879,0.692,3.856,0.692,6.131c0,0.791,0,1.582,0,2.273h-33.223l0.099,0.692c1.286,6.131,5.933,10.58,11.074,10.58h0.099
		c2.868-0.198,6.032-1.978,7.91-3.56l1.088-0.89l8.207,7.119l-1.483,1.285c-1.087,0.989-2.472,2.175-3.955,2.966h-0.099
		c-3.56,2.077-7.416,3.164-11.767,3.264H524.985z M515.295,83.017l-0.396,0.791h20.468l-0.396-0.791
		c-2.273-4.251-6.031-6.822-9.888-6.822S517.372,78.864,515.295,83.017z"/>
</g>
<path fill="#9CD8DC" d="M144.786,88.991c12.613,0,22.837-10.224,22.837-22.836s-10.225-22.837-22.837-22.837
	c-4.665,0-9.002,1.403-12.616,3.804c2.175-3.496,3.435-7.622,3.435-12.042c0-12.612-10.225-22.836-22.835-22.836
	c-12.613,0-22.837,10.224-22.837,22.836v53.912H35.078c-12.612,0-22.835,10.226-22.835,22.837c0,12.612,10.223,22.838,22.835,22.838
	c4.666,0,9.001-1.403,12.617-3.805c-2.175,3.497-3.436,7.623-3.436,12.044c0,12.611,10.225,22.837,22.837,22.837
	s22.837-10.226,22.837-22.837c0,12.611,10.225,22.837,22.837,22.837c12.61,0,22.835-10.226,22.835-22.837
	c0-4.421-1.26-8.547-3.435-12.044c3.614,2.401,7.952,3.805,12.616,3.805c12.613,0,22.837-10.226,22.837-22.838
	C167.624,99.217,157.399,88.991,144.786,88.991z"/>
<path fill="#E66E73" d="M54.853,0C42.241,0,32.017,10.225,32.017,22.837c0,4.421,1.26,8.547,3.437,12.043
	c-3.616-2.402-7.953-3.804-12.618-3.804C10.224,31.077,0,41.3,0,53.913C0,66.525,10.224,76.75,22.835,76.75h54.854V22.837
	C77.689,10.225,67.465,0,54.853,0z"/>
</svg>
