<?xml version="1.0" encoding="utf-8"?>
<!-- Generator: Adobe Illustrator 16.0.4, SVG Export Plug-In . SVG Version: 6.00 Build 0)  -->
<!DOCTYPE svg PUBLIC "-//W3C//DTD SVG 1.1//EN" "http://www.w3.org/Graphics/SVG/1.1/DTD/svg11.dtd">
<svg version="1.1" id="Calque_1" xmlns="http://www.w3.org/2000/svg" xmlns:xlink="http://www.w3.org/1999/xlink" x="0px" y="0px"
	 width="550px" height="165.742px" viewBox="0 0 550 165.742" enable-background="new 0 0 550 165.742" xml:space="preserve">
<g>
	<path fill="#FFFFFF" d="M242.294,99.186l-12.359-21.751l-12.261,21.751h-10.976L198.196,53.9h11.766l5.142,27.092l9.492-16.71
		h10.679l9.591,16.71l5.142-27.092h11.667l-8.503,45.286H242.294z"/>
	<path fill="#FFFFFF" d="M289.658,100.273c-2.867,0-5.834-0.692-8.604-1.979c-2.57-1.088-4.943-2.868-7.12-5.144
		c-3.46-3.758-5.537-8.699-6.031-13.841c-0.099-0.891-0.198-1.781-0.198-2.77c0-1.979,0.296-4.055,0.791-6.131
		c0.89-3.955,2.768-7.613,5.438-10.382c1.978-2.175,4.25-3.856,7.119-5.24c2.671-1.286,5.638-1.879,8.701-1.879
		c3.164,0,6.031,0.593,8.701,1.879c2.967,1.384,5.34,3.164,7.118,5.24c2.57,2.769,4.55,6.328,5.537,10.382
		c0.494,1.879,0.691,3.855,0.691,6.131c0,0.791,0,1.582,0,2.273H278.58l0.099,0.691c1.285,6.131,5.933,10.58,11.074,10.58h0.101
		c2.866-0.196,6.03-1.979,7.91-3.562l1.086-0.889l8.207,7.118l-1.481,1.285c-1.089,0.989-2.474,2.175-3.955,2.966h-0.101
		c-3.56,2.077-7.416,3.164-11.767,3.264h-0.097v0.008H289.658z M279.967,70.017l-0.395,0.792h20.467l-0.396-0.792
		c-2.272-4.251-6.031-6.822-9.888-6.822C285.9,63.194,282.044,65.864,279.967,70.017z"/>
	<path fill="#9CD8DC" d="M331.384,99.087c-4.944-0.989-9.591-3.164-13.25-6.427l-1.483-1.188l7.416-8.208l1.387,1.285
		c4.352,3.658,7.908,4.353,10.184,4.353c1.684,0,2.868-0.197,4.057-0.791c1.48-0.594,2.175-1.582,2.175-2.967
		c0-1.188-0.692-2.67-6.525-3.659c-5.34-1.088-8.7-2.176-10.282-3.064c-2.078-1.188-3.759-2.77-4.945-4.746
		c-1.187-1.979-1.777-4.153-1.777-6.625c0-2.571,0.791-5.043,2.373-7.317c1.285-1.878,3.164-3.361,5.934-4.746
		c2.273-1.087,4.846-1.582,7.909-1.582c1.089,0,2.177,0.099,3.164,0.198c4.353,0.692,8.701,2.57,12.263,5.339l1.48,1.187
		l-7.021,8.108l-1.385-1.088c-3.461-2.769-6.427-3.263-8.207-3.263c-1.285,0-2.472,0.197-3.559,0.692
		c-1.286,0.692-1.979,1.78-1.979,2.472c0,1.384,0.987,2.373,6.131,3.561c6.724,1.582,8.896,2.373,10.283,2.966
		c2.769,1.582,3.953,2.866,4.941,4.153c1.482,2.076,2.176,4.646,2.176,7.414c0,2.869-0.791,5.438-2.273,7.518
		c-1.482,2.074-3.459,3.854-6.328,5.238c-2.273,1.088-5.239,1.683-8.205,1.683C334.646,99.581,333.164,99.383,331.384,99.087z"/>
	<path fill="#9CD8DC" d="M392.49,99.186V74.961c0-5.34-4.252-9.492-9.592-9.492c-5.143,0-9.59,4.251-9.59,9.492v24.225h-12.36V26.61
		h12.36v30.553c3.063-3.065,6.326-4.153,9.59-4.153c5.934,0,11.471,2.274,15.623,6.328c4.151,4.252,6.428,9.789,6.428,15.623v24.225
		H392.49z"/>
	<path fill="#9CD8DC" d="M419.68,93.253c-4.449-4.548-6.922-10.481-6.922-16.71s2.473-12.162,6.922-16.71
		c4.449-4.45,10.382-6.823,16.71-6.823c4.153,0,7.91,1.483,11.173,4.45l0.494,0.396V53.9h11.965v45.286h-11.965v-3.56l-0.494,0.494
		c-3.56,3.461-7.611,3.955-11.173,3.955C430.161,100.075,424.228,97.702,419.68,93.253z M424.723,76.543
		c0,6.525,5.339,11.964,11.667,11.964s11.667-5.438,11.667-11.964c0-6.427-5.339-11.964-11.667-11.964
		S424.723,70.116,424.723,76.543z"/>
	<path fill="#9CD8DC" d="M472.48,99.186V53.9h12.459v3.659c3.56-3.56,8.896-4.746,12.458-4.746h2.967l-2.967,12.359h-1.881
		c-5.833,0-10.577,4.548-10.577,9.986v24.027H472.48L472.48,99.186z"/>
	<path fill="#9CD8DC" d="M524.985,100.273c-2.867,0-5.834-0.692-8.604-1.979c-2.57-1.088-4.941-2.868-7.119-5.144
		c-3.46-3.758-5.537-8.699-6.029-13.841c-0.101-0.891-0.198-1.781-0.198-2.77c0-1.979,0.297-4.055,0.791-6.131
		c0.891-3.955,2.77-7.613,5.438-10.382c1.979-2.175,4.252-3.856,7.119-5.24c2.67-1.286,5.636-1.879,8.701-1.879
		c3.164,0,6.032,0.593,8.701,1.879c2.967,1.384,5.34,3.164,7.119,5.24c2.569,2.769,4.549,6.328,5.536,10.382
		c0.494,1.879,0.691,3.855,0.691,6.131c0,0.791,0,1.582,0,2.273h-33.223l0.099,0.691c1.286,6.131,5.935,10.58,11.074,10.58h0.099
		c2.868-0.196,6.032-1.979,7.91-3.562l1.088-0.889l8.207,7.118l-1.481,1.285c-1.087,0.989-2.474,2.175-3.955,2.966h-0.101
		c-3.56,2.077-7.416,3.164-11.767,3.264h-0.097L524.985,100.273L524.985,100.273z M515.295,70.017l-0.396,0.792h20.468l-0.396-0.792
		c-2.271-4.251-6.029-6.822-9.888-6.822S517.372,65.864,515.295,70.017z"/>
</g>
<path fill="#9CD8DC" d="M144.786,88.991c12.613,0,22.837-10.224,22.837-22.836c0-12.612-10.225-22.837-22.837-22.837
	c-4.665,0-9.002,1.403-12.616,3.804c2.175-3.496,3.435-7.622,3.435-12.042c0-12.612-10.225-22.836-22.835-22.836
	c-12.613,0-22.837,10.224-22.837,22.836v53.912H35.078c-12.612,0-22.835,10.226-22.835,22.837c0,12.612,10.223,22.838,22.835,22.838
	c4.666,0,9.001-1.403,12.617-3.806c-2.175,3.498-3.436,7.623-3.436,12.045c0,12.611,10.225,22.837,22.837,22.837
	c12.612,0,22.837-10.226,22.837-22.837c0,12.611,10.225,22.837,22.837,22.837c12.61,0,22.835-10.226,22.835-22.837
	c0-4.422-1.26-8.547-3.435-12.045c3.614,2.402,7.952,3.806,12.616,3.806c12.613,0,22.837-10.226,22.837-22.838
	C167.624,99.217,157.399,88.991,144.786,88.991z"/>
<path fill="#E66E73" d="M54.853,0C42.241,0,32.017,10.225,32.017,22.837c0,4.421,1.26,8.547,3.437,12.043
	c-3.616-2.402-7.953-3.804-12.618-3.804C10.224,31.077,0,41.3,0,53.913C0,66.525,10.224,76.75,22.835,76.75h54.854V22.837
	C77.689,10.225,67.465,0,54.853,0z"/>
<g>
	<path fill="#68C5CD" d="M202.825,131.371v-22.076h7.907c1.519,0,2.946,0.589,4.031,1.674c1.054,1.086,1.674,2.48,1.674,4
		c0,3.133-2.574,5.645-5.705,5.645h-3.783v10.759L202.825,131.371L202.825,131.371z M210.732,116.551c0.868,0,1.55-0.714,1.55-1.582
		c0-0.867-0.713-1.611-1.55-1.611h-3.783v3.193H210.732z"/>
	<path fill="#68C5CD" d="M219.38,129.512c-1.396-1.428-2.171-3.287-2.171-5.24s0.775-3.813,2.171-5.239
		c1.395-1.396,3.255-2.14,5.24-2.14c1.302,0,2.48,0.465,3.503,1.396l0.155,0.123v-1.24h3.752v14.201h-3.752v-1.116l-0.155,0.155
		c-1.116,1.085-2.387,1.239-3.503,1.239C222.666,131.65,220.806,130.906,219.38,129.512z M220.961,124.271
		c0,2.047,1.674,3.752,3.659,3.752c1.985,0,3.659-1.705,3.659-3.752c0-2.016-1.674-3.752-3.659-3.752
		C222.635,120.52,220.961,122.256,220.961,124.271z"/>
	<path fill="#68C5CD" d="M235.933,131.371V117.17h3.907v1.146c1.116-1.115,2.79-1.487,3.906-1.487h0.931l-0.931,3.876h-0.589
		c-1.829,0-3.317,1.426-3.317,3.132v7.534H235.933z"/>
	<path fill="#68C5CD" d="M253.448,131.371c-1.364,0-2.635-0.527-3.565-1.457c-0.961-0.961-1.457-2.201-1.457-3.566v-5.891h-1.984
		v-3.193h1.984v-5.58h3.689v5.58h4.124v3.193h-4.124v5.829c0,0.774,0.682,1.487,1.364,1.487h2.697l0.992,3.598H253.448z"/>
	<path fill="#68C5CD" d="M260.423,129.512c-1.396-1.428-2.171-3.287-2.171-5.24s0.775-3.813,2.171-5.239
		c1.395-1.396,3.255-2.14,5.24-2.14c1.302,0,2.48,0.465,3.503,1.396l0.155,0.123v-1.24h3.752v14.201h-3.752v-1.116l-0.155,0.155
		c-1.116,1.085-2.387,1.239-3.503,1.239C263.709,131.65,261.849,130.906,260.423,129.512z M262.004,124.271
		c0,2.047,1.674,3.752,3.659,3.752s3.659-1.705,3.659-3.752c0-2.016-1.674-3.752-3.659-3.752S262.004,122.256,262.004,124.271z"/>
	<path fill="#68C5CD" d="M279.053,138.502c-0.589-0.311-1.115-0.807-1.363-1.021l-0.496-0.496l2.791-2.45l0.402,0.342
		c0.838,0.62,1.891,1.054,2.76,1.116c2.107-0.031,3.845-1.829,3.845-4v-1.799l-0.154,0.154c-1.086,1.055-2.108,1.209-3.256,1.271
		h-0.526c-1.923-0.062-3.628-0.775-4.962-2.108c-1.395-1.427-2.17-3.286-2.17-5.239s0.775-3.813,2.17-5.239
		c1.427-1.396,3.287-2.14,5.24-2.14c1.521,0,2.573,0.402,3.504,1.332l0.154,0.125v-1.18h3.752v14.854
		c0,2.045-0.806,3.938-2.265,5.363c-1.395,1.457-3.285,2.232-5.332,2.232C281.658,139.619,280.23,139.246,279.053,138.502z
		 M279.674,124.271c0,2.047,1.674,3.752,3.658,3.752s3.658-1.705,3.658-3.752s-1.674-3.782-3.658-3.782
		S279.674,122.225,279.674,124.271z"/>
	<path fill="#68C5CD" d="M300.568,131.712c-0.899,0-1.83-0.217-2.697-0.62c-0.807-0.341-1.551-0.898-2.232-1.611
		c-1.086-1.178-1.736-2.729-1.892-4.342c-0.031-0.279-0.062-0.558-0.062-0.867c0-0.621,0.092-1.271,0.248-1.922
		c0.277-1.24,0.866-2.389,1.705-3.257c0.619-0.683,1.332-1.209,2.231-1.644c0.837-0.402,1.769-0.59,2.729-0.59
		c0.991,0,1.891,0.188,2.729,0.59c0.93,0.435,1.674,0.992,2.232,1.644c0.806,0.868,1.426,1.984,1.735,3.257
		c0.154,0.588,0.218,1.209,0.218,1.922c0,0.248,0,0.496,0,0.713h-10.419l0.031,0.218c0.401,1.922,1.86,3.317,3.474,3.317h0.03
		c0.897-0.062,1.892-0.621,2.479-1.117l0.342-0.278l2.572,2.231l-0.465,0.403c-0.342,0.31-0.774,0.683-1.24,0.931h-0.03
		c-1.116,0.65-2.325,0.992-3.688,1.022H300.568L300.568,131.712z M297.529,122.225l-0.123,0.248h6.418l-0.124-0.248
		c-0.714-1.334-1.892-2.14-3.101-2.14S298.182,120.922,297.529,122.225z"/>
	<path fill="#68C5CD" d="M310.208,131.371V117.17h3.906v1.146c1.116-1.115,2.79-1.487,3.907-1.487h0.93l-0.93,3.876h-0.59
		c-1.83,0-3.317,1.426-3.317,3.132v7.534H310.208z"/>
	<path fill="#68C5CD" d="M329.552,129.512c-1.396-1.428-2.17-3.287-2.17-5.24s0.774-3.813,2.17-5.239
		c1.396-1.396,3.257-2.14,5.24-2.14c1.302,0,2.479,0.465,3.504,1.396l0.155,0.123v-9.797h3.751v22.758h-3.751v-1.116l-0.155,0.155
		c-1.116,1.085-2.388,1.239-3.504,1.239C332.839,131.65,330.979,130.906,329.552,129.512z M331.133,124.271
		c0,2.047,1.676,3.752,3.659,3.752s3.659-1.705,3.659-3.752c0-2.016-1.676-3.752-3.659-3.752S331.133,122.256,331.133,124.271z"/>
	<path fill="#68C5CD" d="M351.779,131.712c-0.899,0-1.829-0.217-2.697-0.62c-0.807-0.341-1.551-0.898-2.232-1.611
		c-1.086-1.178-1.735-2.729-1.892-4.342c-0.031-0.279-0.062-0.558-0.062-0.867c0-0.621,0.092-1.271,0.248-1.922
		c0.277-1.24,0.866-2.389,1.705-3.257c0.619-0.683,1.332-1.209,2.231-1.644c0.837-0.402,1.769-0.59,2.729-0.59
		c0.991,0,1.891,0.188,2.729,0.59c0.93,0.435,1.674,0.992,2.232,1.644c0.806,0.868,1.426,1.984,1.735,3.257
		c0.154,0.588,0.218,1.209,0.218,1.922c0,0.248,0,0.496,0,0.713h-10.418l0.03,0.218c0.401,1.922,1.86,3.317,3.474,3.317h0.03
		c0.897-0.062,1.892-0.621,2.479-1.117l0.342-0.278l2.572,2.231l-0.465,0.403c-0.342,0.31-0.774,0.683-1.24,0.931H355.5
		c-1.116,0.65-2.325,0.992-3.689,1.022H351.779L351.779,131.712z M348.74,122.225l-0.123,0.248h6.418l-0.124-0.248
		c-0.714-1.334-1.892-2.14-3.101-2.14S349.393,120.922,348.74,122.225z"/>
	<path fill="#68C5CD" d="M365.078,131.371l-5.768-14.201h4l3.473,8.496l3.441-8.496h4.03l-5.769,14.201H365.078z"/>
	<path fill="#68C5CD" d="M376.702,113.078c0-0.651,0.248-1.24,0.713-1.676c0.465-0.465,1.054-0.713,1.705-0.713
		c1.303,0,2.388,1.086,2.388,2.389c0,1.302-1.085,2.387-2.388,2.387C377.787,115.465,376.702,114.38,376.702,113.078z
		 M377.105,131.371V117.17h4.029v14.201H377.105z"/>
	<path fill="#68C5CD" d="M391.459,131.712c-0.898,0-1.829-0.217-2.697-0.62c-0.807-0.341-1.551-0.898-2.231-1.611
		c-1.087-1.178-1.736-2.729-1.892-4.342c-0.031-0.279-0.062-0.558-0.062-0.867c0-0.621,0.093-1.271,0.248-1.922
		c0.277-1.24,0.867-2.389,1.705-3.257c0.619-0.683,1.332-1.209,2.231-1.644c0.837-0.402,1.769-0.59,2.729-0.59
		c0.992,0,1.891,0.188,2.729,0.59c0.93,0.435,1.674,0.992,2.232,1.644c0.806,0.868,1.426,1.984,1.736,3.257
		c0.153,0.588,0.217,1.209,0.217,1.922c0,0.248,0,0.496,0,0.713h-10.418l0.031,0.218c0.401,1.922,1.859,3.317,3.473,3.317h0.031
		c0.897-0.062,1.891-0.621,2.479-1.117l0.341-0.278l2.573,2.231l-0.465,0.403c-0.343,0.31-0.775,0.683-1.24,0.931h-0.03
		c-1.117,0.65-2.326,0.992-3.689,1.022H391.459L391.459,131.712z M388.42,122.225l-0.123,0.248h6.418l-0.124-0.248
		c-0.714-1.334-1.892-2.14-3.101-2.14S389.07,120.922,388.42,122.225z"/>
	<path fill="#68C5CD" d="M410.803,131.371v-7.598c0-1.674-1.332-2.977-3.008-2.977c-1.611,0-3.007,1.333-3.007,2.977v7.598h-3.876
		V117.17h3.876v1.023c0.961-0.961,1.983-1.303,3.007-1.303c1.861,0,3.598,0.713,4.898,1.984c1.303,1.333,2.017,3.068,2.017,4.898
		v7.597L410.803,131.371L410.803,131.371z"/>
	<path fill="#68C5CD" d="M423.791,131.371c-1.364,0-2.635-0.527-3.564-1.457c-0.961-0.961-1.457-2.201-1.457-3.566v-5.891h-1.984
		v-3.193h1.984v-5.58h3.688v5.58h4.124v3.193h-4.124v5.829c0,0.774,0.683,1.487,1.364,1.487h2.696l0.992,3.598H423.791z"/>
	<path fill="#68C5CD" d="M449.461,119.031c1.396,1.426,2.17,3.285,2.17,5.238c0,1.955-0.774,3.813-2.17,5.24
		c-1.396,1.396-3.256,2.141-5.24,2.141c-1.303,0-2.479-0.465-3.504-1.396l-0.154-0.124v9.488h-3.752V117.17h3.752v1.117l0.154-0.155
		c1.116-1.085,2.389-1.239,3.504-1.239C446.174,116.893,448.034,117.637,449.461,119.031z M447.879,124.271
		c0-2.047-1.674-3.752-3.658-3.752c-1.983,0-3.658,1.705-3.658,3.752c0,2.016,1.675,3.752,3.658,3.752
		C446.205,128.023,447.879,126.286,447.879,124.271z"/>
	<path fill="#68C5CD" d="M455.751,129.542c-1.396-1.458-2.17-3.349-2.17-5.271c0-1.953,0.774-3.846,2.17-5.271
		c1.427-1.363,3.287-2.141,5.271-2.141c2.046,0,3.905,0.775,5.238,2.141c1.428,1.426,2.202,3.286,2.202,5.271
		c0,1.984-0.774,3.845-2.202,5.271c-1.395,1.396-3.255,2.17-5.238,2.17C459.1,131.712,457.209,130.938,455.751,129.542z
		 M457.239,124.271c0,2.14,1.706,3.875,3.783,3.875c2.107,0,3.812-1.735,3.812-3.875c0-2.141-1.705-3.877-3.812-3.877
		C458.945,120.395,457.239,122.131,457.239,124.271z"/>
	<path fill="#68C5CD" d="M475.095,131.34c-1.55-0.311-3.007-0.992-4.153-2.016l-0.467-0.371l2.326-2.574l0.435,0.403
		c1.363,1.147,2.479,1.364,3.192,1.364c0.527,0,0.899-0.062,1.271-0.248c0.465-0.187,0.683-0.496,0.683-0.931
		c0-0.372-0.218-0.838-2.047-1.147c-1.674-0.34-2.729-0.682-3.225-0.961c-0.651-0.371-1.179-0.867-1.551-1.488
		c-0.372-0.619-0.559-1.303-0.559-2.077c0-0.806,0.248-1.581,0.744-2.294c0.403-0.59,0.992-1.055,1.86-1.488
		c0.714-0.342,1.52-0.496,2.479-0.496c0.341,0,0.683,0.031,0.992,0.062c1.364,0.218,2.729,0.807,3.845,1.675l0.465,0.372
		l-2.201,2.542l-0.434-0.341c-1.086-0.868-2.016-1.023-2.574-1.023c-0.401,0-0.773,0.062-1.114,0.219
		c-0.403,0.217-0.621,0.558-0.621,0.773c0,0.436,0.311,0.744,1.923,1.116c2.107,0.496,2.79,0.743,3.225,0.931
		c0.868,0.496,1.24,0.899,1.55,1.303c0.467,0.65,0.684,1.457,0.684,2.326c0,0.897-0.248,1.704-0.713,2.354
		c-0.467,0.651-1.085,1.21-1.984,1.644c-0.714,0.342-1.644,0.527-2.573,0.527C476.118,131.495,475.653,131.434,475.095,131.34z"/>
	<path fill="#68C5CD" d="M488.61,131.34c-1.551-0.311-3.008-0.992-4.154-2.016l-0.466-0.371l2.326-2.574l0.434,0.403
		c1.364,1.147,2.48,1.364,3.193,1.364c0.526,0,0.898-0.062,1.271-0.248c0.465-0.187,0.683-0.496,0.683-0.931
		c0-0.372-0.218-0.838-2.047-1.147c-1.674-0.34-2.729-0.682-3.225-0.961c-0.651-0.371-1.178-0.867-1.55-1.488
		c-0.372-0.619-0.56-1.303-0.56-2.077c0-0.806,0.248-1.581,0.744-2.294c0.403-0.59,0.992-1.055,1.86-1.488
		c0.714-0.342,1.52-0.496,2.479-0.496c0.342,0,0.684,0.031,0.992,0.062c1.364,0.218,2.729,0.807,3.845,1.675l0.466,0.372
		l-2.201,2.542l-0.435-0.341c-1.086-0.868-2.016-1.023-2.573-1.023c-0.402,0-0.774,0.062-1.115,0.219
		c-0.403,0.217-0.621,0.558-0.621,0.773c0,0.436,0.311,0.744,1.923,1.116c2.108,0.496,2.79,0.743,3.226,0.931
		c0.867,0.496,1.239,0.899,1.55,1.303c0.466,0.65,0.683,1.457,0.683,2.326c0,0.897-0.248,1.704-0.713,2.354
		c-0.466,0.651-1.085,1.21-1.984,1.644c-0.714,0.342-1.644,0.527-2.572,0.527C489.634,131.495,489.169,131.434,488.61,131.34z"/>
	<path fill="#68C5CD" d="M498.469,113.078c0-0.651,0.248-1.24,0.713-1.676c0.466-0.465,1.056-0.713,1.705-0.713
		c1.304,0,2.389,1.086,2.389,2.389c0,1.302-1.085,2.387-2.389,2.387C499.554,115.465,498.469,114.38,498.469,113.078z
		 M498.871,131.371V117.17h4.031v14.201H498.871z"/>
	<path fill="#68C5CD" d="M511.365,130.41l-0.155-0.155v1.116h-3.752v-22.758h3.752v9.797l0.155-0.123
		c1.021-0.932,2.201-1.396,3.503-1.396c1.983,0,3.845,0.744,5.24,2.141c1.396,1.426,2.171,3.285,2.171,5.238
		c0,1.955-0.775,3.813-2.171,5.24c-1.428,1.396-3.286,2.141-5.24,2.141C513.752,131.65,512.48,131.495,511.365,130.41z
		 M514.868,128.021c1.983,0,3.659-1.705,3.659-3.752c0-2.015-1.676-3.75-3.659-3.75c-1.984,0-3.658,1.735-3.658,3.75
		C511.21,126.316,512.884,128.021,514.868,128.021z"/>
	<path fill="#68C5CD" d="M524.941,131.371v-22.758h4.03v22.758H524.941z"/>
	<path fill="#68C5CD" d="M538.924,131.712c-0.898,0-1.829-0.217-2.697-0.62c-0.807-0.341-1.551-0.898-2.231-1.611
		c-1.086-1.178-1.736-2.729-1.893-4.342c-0.03-0.279-0.062-0.558-0.062-0.867c0-0.621,0.093-1.271,0.248-1.922
		c0.278-1.24,0.867-2.389,1.705-3.257c0.62-0.683,1.333-1.209,2.231-1.644c0.837-0.402,1.769-0.59,2.729-0.59
		c0.992,0,1.891,0.188,2.729,0.59c0.931,0.435,1.675,0.992,2.232,1.644c0.806,0.868,1.426,1.984,1.736,3.257
		c0.153,0.588,0.217,1.209,0.217,1.922c0,0.248,0,0.496,0,0.713h-10.418l0.031,0.218c0.401,1.922,1.859,3.317,3.473,3.317h0.031
		c0.897-0.062,1.891-0.621,2.479-1.117l0.341-0.278l2.573,2.231l-0.465,0.403c-0.342,0.31-0.775,0.683-1.24,0.931h-0.031
		c-1.115,0.65-2.324,0.992-3.688,1.022H538.924L538.924,131.712z M535.885,122.225l-0.123,0.248h6.418l-0.124-0.248
		c-0.714-1.334-1.892-2.14-3.101-2.14S536.536,120.922,535.885,122.225z"/>
</g>
</svg>
