<?xml version="1.0" encoding="utf-8"?>
<!-- Generator: Adobe Illustrator 16.0.4, SVG Export Plug-In . SVG Version: 6.00 Build 0)  -->
<!DOCTYPE svg PUBLIC "-//W3C//DTD SVG 1.1//EN" "http://www.w3.org/Graphics/SVG/1.1/DTD/svg11.dtd">
<svg version="1.1" id="Calque_1" xmlns="http://www.w3.org/2000/svg" xmlns:xlink="http://www.w3.org/1999/xlink" x="0px" y="0px"
	 width="13px" height="16.988px" viewBox="0 0 13 16.988" enable-background="new 0 0 13 16.988" xml:space="preserve">
<path display="none" d="M84.667,5.993h-8v-50.665c0-35.714-31.415-64.667-70.167-64.667s-70.167,28.952-70.167,64.667V5.993h-8
	c-6.627,0-12,5.373-12,12v96.333c0,6.627,5.373,12,12,12H84.667c6.627,0,12-5.373,12-12V17.994
	C96.667,11.366,91.294,5.993,84.667,5.993z M-35.515-44.672c0-21.385,18.811-38.721,42.015-38.721
	c23.203,0,42.015,17.336,42.015,38.721V5.993h-84.029V-44.672z"/>
<path display="none" fill="#D5D5D5" d="M84.667,5.993h-8H48.515H23.167h-58.682v-50.665c0-21.385,18.811-38.721,42.015-38.721
	c23.203,0,42.015,17.336,42.015,38.721v7.498h28.152v-7.498c0-35.714-31.415-64.667-70.167-64.667s-70.167,28.952-70.167,64.667
	V5.993h-8c-6.627,0-12,5.373-12,12v96.333c0,6.627,5.373,12,12,12H84.667c6.627,0,12-5.373,12-12V17.994
	C96.667,11.366,91.294,5.993,84.667,5.993z"/>
<path fill="#34B1BC" d="M12.135,8.314h-0.576H9.529H7.701H3.472V4.662c0-1.542,1.356-2.792,3.028-2.792
	c1.674,0,3.029,1.25,3.029,2.792v0.54h2.029v-0.54C11.559,2.087,9.294,0,6.5,0C3.707,0,1.442,2.087,1.442,4.662v3.652H0.865
	C0.388,8.314,0,8.701,0,9.179v6.944c0,0.479,0.388,0.865,0.865,0.865h11.27c0.479,0,0.865-0.387,0.865-0.865V9.179
	C13,8.701,12.613,8.314,12.135,8.314z"/>
</svg>
