<?xml version="1.0" encoding="utf-8"?>
<!-- Generator: Adobe Illustrator 16.0.4, SVG Export Plug-In . SVG Version: 6.00 Build 0)  -->
<!DOCTYPE svg PUBLIC "-//W3C//DTD SVG 1.1//EN" "http://www.w3.org/Graphics/SVG/1.1/DTD/svg11.dtd">
<svg version="1.1" id="Calque_2" xmlns="http://www.w3.org/2000/svg" xmlns:xlink="http://www.w3.org/1999/xlink" x="0px" y="0px"
	 width="306px" height="40px" viewBox="0 0 306 40" enable-background="new 0 0 306 40" xml:space="preserve">
<polygon fill="#32B1BC" points="11.457,7.833 6.661,7.833 0,18.668 0,30.125 11.457,30.125 11.457,18.668 5.728,18.668 "/>
<polygon fill="#32B1BC" points="26,7.833 21.204,7.833 14.543,18.668 14.543,30.125 26,30.125 26,18.668 20.271,18.668 "/>
<polygon fill="#32B1BC" points="294.543,30.125 299.34,30.125 306,19.291 306,7.833 294.543,7.833 294.543,19.291 300.272,19.291 
	"/>
<polygon fill="#32B1BC" points="280,30.125 284.797,30.125 291.457,19.291 291.457,7.833 280,7.833 280,19.291 285.729,19.291 "/>
</svg>
