<?xml version="1.0" encoding="utf-8"?>
<!-- Generator: Adobe Illustrator 16.0.4, SVG Export Plug-In . SVG Version: 6.00 Build 0)  -->
<!DOCTYPE svg PUBLIC "-//W3C//DTD SVG 1.1//EN" "http://www.w3.org/Graphics/SVG/1.1/DTD/svg11.dtd">
<svg version="1.1" id="Forme_1_copie_1_" xmlns="http://www.w3.org/2000/svg" xmlns:xlink="http://www.w3.org/1999/xlink" x="0px"
	 y="0px" width="200px" height="200px" viewBox="0 0 200 200" enable-background="new 0 0 200 200" xml:space="preserve">
<path fill="#9CD8DC" d="M177.159,36.384l-8.855,38.973L157.37,64.423l-36.989,36.989L100,81.03l36.988-36.988l-10.934-10.934
	l39.178-8.902C147.722,9.121,124.926,0,100,0C44.771,0,0,44.771,0,100c0,25.399,9.47,48.586,25.07,66.225l9.445-41.572
	l10.932,10.932L82.43,98.603l20.379,20.379l-36.981,36.982l10.932,10.932l-41.399,9.406C52.792,191.084,75.354,200,100,200
	c55.229,0,100-44.771,100-100C200,75.834,191.428,53.671,177.159,36.384z"/>
</svg>
