<?xml version="1.0" encoding="utf-8"?>
<!-- Generator: Adobe Illustrator 16.0.4, SVG Export Plug-In . SVG Version: 6.00 Build 0)  -->
<!DOCTYPE svg PUBLIC "-//W3C//DTD SVG 1.1//EN" "http://www.w3.org/Graphics/SVG/1.1/DTD/svg11.dtd">
<svg version="1.1" id="Calque_3" xmlns="http://www.w3.org/2000/svg" xmlns:xlink="http://www.w3.org/1999/xlink" x="0px" y="0px"
	 width="15.325px" height="17px" viewBox="173.877 544.236 15.325 17" enable-background="new 173.877 544.236 15.325 17"
	 xml:space="preserve">
<path fill="#FFFFFF" d="M184.472,546.492v2.982c1.276,0.915,2.109,2.409,2.109,4.099c0,2.784-2.257,5.041-5.041,5.041
	s-5.041-2.257-5.041-5.041c0-1.69,0.833-3.186,2.11-4.1v-2.982c-2.777,1.151-4.731,3.888-4.731,7.082
	c0,4.232,3.431,7.663,7.663,7.663s7.663-3.431,7.663-7.663C189.203,550.38,187.249,547.643,184.472,546.492z"/>
<path fill="#FFFFFF" d="M180.479,552.192c0,0.763,0.475,1.381,1.061,1.381l0,0c0.585,0,1.061-0.619,1.061-1.381v-6.575
	c0-0.763-0.475-1.381-1.061-1.381l0,0c-0.585,0-1.061,0.619-1.061,1.381V552.192z"/>
</svg>
