<?xml version="1.0" encoding="utf-8"?>
<!-- Generator: Adobe Illustrator 16.0.4, SVG Export Plug-In . SVG Version: 6.00 Build 0)  -->
<!DOCTYPE svg PUBLIC "-//W3C//DTD SVG 1.1//EN" "http://www.w3.org/Graphics/SVG/1.1/DTD/svg11.dtd">
<svg version="1.1" id="Layer_1" xmlns="http://www.w3.org/2000/svg" xmlns:xlink="http://www.w3.org/1999/xlink" x="0px" y="0px"
	 width="21.749px" height="24.856px" viewBox="236.501 234.572 21.749 24.856"
	 enable-background="new 236.501 234.572 21.749 24.856" xml:space="preserve">
<path fill="#FFFFFF" d="M256.957,239.75h-3.367v-3.107c0-1.145-0.927-2.071-2.07-2.071h-8.287c-1.144,0-2.07,0.927-2.07,2.071v3.107
	h-3.367c-0.714,0-1.294,0.58-1.294,1.294c0,0.715,0.58,1.295,1.294,1.295h0.777v15.018c0,1.145,0.927,2.071,2.07,2.071h13.465
	c1.144,0,2.072-0.927,2.072-2.071v-15.018h0.775c0.715,0,1.295-0.58,1.295-1.295C258.251,240.33,257.67,239.75,256.957,239.75z
	 M251.001,239.75h-7.25v-1.45c0-0.632,0.508-1.14,1.14-1.14h4.971c0.632,0,1.14,0.508,1.14,1.14V239.75L251.001,239.75z
	 M243.751,243.375v12.428c0,0.569-0.467,1.036-1.036,1.036s-1.035-0.467-1.035-1.036v-12.428c0-0.569,0.466-1.036,1.035-1.036
	C243.284,242.34,243.751,242.806,243.751,243.375z M248.412,243.375v12.428c0,0.569-0.467,1.036-1.036,1.036
	s-1.036-0.467-1.036-1.036v-12.428c0-0.569,0.467-1.036,1.036-1.036S248.412,242.806,248.412,243.375z M253.072,243.375v12.428
	c0,0.569-0.467,1.036-1.036,1.036c-0.568,0-1.035-0.467-1.035-1.036v-12.428c0-0.569,0.467-1.036,1.035-1.036
	C252.605,242.34,253.072,242.806,253.072,243.375z"/>
</svg>
