<?xml version="1.0" encoding="utf-8"?>
<!-- Generator: Adobe Illustrator 16.0.4, SVG Export Plug-In . SVG Version: 6.00 Build 0)  -->
<!DOCTYPE svg PUBLIC "-//W3C//DTD SVG 1.1//EN" "http://www.w3.org/Graphics/SVG/1.1/DTD/svg11.dtd">
<svg version="1.1" id="Layer_1" xmlns="http://www.w3.org/2000/svg" xmlns:xlink="http://www.w3.org/1999/xlink" x="0px" y="0px"
	 width="27px" height="30.856px" viewBox="236.501 234.572 27 30.856" enable-background="new 236.501 234.572 27 30.856"
	 xml:space="preserve">
<path fill="#34B1BC" d="M261.894,241h-4.179v-3.857c0-1.421-1.15-2.571-2.571-2.571h-10.286c-1.42,0-2.571,1.15-2.571,2.571V241
	h-4.179c-0.887,0-1.607,0.72-1.607,1.607c0,0.887,0.72,1.607,1.607,1.607h0.964v18.643c0,1.421,1.151,2.571,2.571,2.571h16.715
	c1.42,0,2.571-1.15,2.571-2.571v-18.643h0.964c0.887,0,1.607-0.72,1.607-1.607C263.501,241.721,262.78,241,261.894,241z
	 M254.501,241h-9v-1.8c0-0.784,0.63-1.415,1.415-1.415h6.17c0.785,0,1.415,0.63,1.415,1.415V241L254.501,241z M245.501,245.5v15.428
	c0,0.707-0.579,1.286-1.286,1.286c-0.707,0-1.286-0.579-1.286-1.286V245.5c0-0.707,0.579-1.286,1.286-1.286
	C244.922,244.215,245.501,244.793,245.501,245.5z M251.287,245.5v15.428c0,0.707-0.579,1.286-1.286,1.286s-1.286-0.579-1.286-1.286
	V245.5c0-0.707,0.579-1.286,1.286-1.286S251.287,244.793,251.287,245.5z M257.072,245.5v15.428c0,0.707-0.579,1.286-1.286,1.286
	c-0.706,0-1.285-0.579-1.285-1.286V245.5c0-0.707,0.579-1.286,1.285-1.286C256.493,244.215,257.072,244.793,257.072,245.5z"/>
</svg>
