<?xml version="1.0" encoding="utf-8"?>
<!-- Generator: Adobe Illustrator 16.0.4, SVG Export Plug-In . SVG Version: 6.00 Build 0)  -->
<!DOCTYPE svg PUBLIC "-//W3C//DTD SVG 1.1//EN" "http://www.w3.org/Graphics/SVG/1.1/DTD/svg11.dtd">
<svg version="1.1" id="Calque_1" xmlns="http://www.w3.org/2000/svg" xmlns:xlink="http://www.w3.org/1999/xlink" x="0px" y="0px"
	 width="14.188px" height="14.188px" viewBox="0 0 14.188 14.188" enable-background="new 0 0 14.188 14.188" xml:space="preserve">
<path fill="#34B1BC" d="M7.094,0C3.176,0,0,3.176,0,7.094s3.176,7.094,7.094,7.094s7.094-3.176,7.094-7.094S11.011,0,7.094,0z
	 M7.094,12.148c-2.792,0-5.054-2.263-5.054-5.054S4.302,2.04,7.094,2.04c2.791,0,5.054,2.263,5.054,5.054S9.885,12.148,7.094,12.148
	z"/>
<g>
	<path fill="#34B1BC" d="M7.594,3.606c-0.275,0-0.5,0.225-0.5,0.5v2.488c0,0.275-0.225,0.5-0.5,0.5h-1.35
		c-0.275,0-0.5,0.225-0.5,0.5v0.197c0,0.275,0.225,0.5,0.5,0.5h1.35c0.275,0,0.725,0,1,0h0.197c0.275,0,0.5-0.225,0.5-0.5V7.594
		c0-0.275,0-0.725,0-1V4.106c0-0.275-0.225-0.5-0.5-0.5H7.594z"/>
</g>
</svg>
