<?xml version="1.0" encoding="utf-8"?>
<!-- Generator: Adobe Illustrator 16.0.4, SVG Export Plug-In . SVG Version: 6.00 Build 0)  -->
<!DOCTYPE svg PUBLIC "-//W3C//DTD SVG 1.1//EN" "http://www.w3.org/Graphics/SVG/1.1/DTD/svg11.dtd">
<svg version="1.1" id="Calque_2" xmlns="http://www.w3.org/2000/svg" xmlns:xlink="http://www.w3.org/1999/xlink" x="0px" y="0px"
	 width="24.886px" height="25px" viewBox="0 0 24.886 25" enable-background="new 0 0 24.886 25" xml:space="preserve">
<path fill="#FFFFFF" d="M24.886,22.146l-7.779-7.779c0.948-1.457,1.5-3.195,1.5-5.063C18.607,4.166,14.442,0,9.304,0
	S0,4.166,0,9.304s4.166,9.303,9.304,9.303c1.738,0,3.364-0.478,4.755-1.308L22.033,25L24.886,22.146z M3.996,9.304
	c0-2.932,2.376-5.309,5.308-5.309s5.308,2.376,5.308,5.309c0,2.932-2.376,5.308-5.308,5.308S3.996,12.235,3.996,9.304z"/>
</svg>
