<?xml version="1.0" encoding="utf-8"?>
<!-- Generator: Adobe Illustrator 16.0.4, SVG Export Plug-In . SVG Version: 6.00 Build 0)  -->
<!DOCTYPE svg PUBLIC "-//W3C//DTD SVG 1.1//EN" "http://www.w3.org/Graphics/SVG/1.1/DTD/svg11.dtd">
<svg version="1.1" id="Calque_1" xmlns="http://www.w3.org/2000/svg" xmlns:xlink="http://www.w3.org/1999/xlink" x="0px" y="0px"
	 width="55px" height="55px" viewBox="73 73 55 55" enable-background="new 73 73 55 55" xml:space="preserve">
<circle fill="#34B1BC" cx="100.5" cy="100.5" r="27.5"/>
<g>
	<path fill="#34B1BC" d="M114.833,115.834c0,1.1-0.9,2-2,2H88.167c-1.1,0-2-0.9-2-2V85.166c0-1.1,0.9-2,2-2h24.666c1.1,0,2,0.9,2,2
		V115.834z"/>
	<path fill="none" stroke="#FFFFFF" stroke-width="4" stroke-miterlimit="10" d="M114.833,115.834c0,1.1-0.9,2-2,2H88.167
		c-1.1,0-2-0.9-2-2V85.166c0-1.1,0.9-2,2-2h24.666c1.1,0,2,0.9,2,2V115.834z"/>
</g>
<g>
	<path fill="#FFFFFF" d="M110.679,88.985c0,0.744-0.9,1.353-2,1.353H92.32c-1.1,0-2-0.608-2-1.353s0.9-1.353,2-1.353h16.358
		C109.778,87.633,110.679,88.241,110.679,88.985z"/>
</g>
<g>
	<path fill="#FFFFFF" d="M110.709,94.209c0,0.756-0.9,1.375-2,1.375H92.292c-1.1,0-2-0.619-2-1.375s0.9-1.375,2-1.375h16.417
		C109.809,92.834,110.709,93.453,110.709,94.209z"/>
</g>
<g>
	<path fill="#FFFFFF" d="M110.709,99.375c0,0.756-0.9,1.375-2,1.375H92.292c-1.1,0-2-0.619-2-1.375s0.9-1.375,2-1.375h16.417
		C109.809,98,110.709,98.619,110.709,99.375z"/>
</g>
</svg>
