<?xml version="1.0" encoding="utf-8"?>
<!-- Generator: Adobe Illustrator 16.0.4, SVG Export Plug-In . SVG Version: 6.00 Build 0)  -->
<!DOCTYPE svg PUBLIC "-//W3C//DTD SVG 1.1//EN" "http://www.w3.org/Graphics/SVG/1.1/DTD/svg11.dtd">
<svg version="1.1" id="Calque_1" xmlns="http://www.w3.org/2000/svg" xmlns:xlink="http://www.w3.org/1999/xlink" x="0px" y="0px"
	 width="25.923px" height="22px" viewBox="87.571 85.891 25.923 22" enable-background="new 87.571 85.891 25.923 22"
	 xml:space="preserve">
<g>
	<circle fill="#FFFFFF" cx="92.126" cy="94.392" r="2.876"/>
	<circle fill="#FFFFFF" cx="100.533" cy="90.067" r="4.177"/>
	<circle fill="#FFFFFF" cx="108.939" cy="94.392" r="2.876"/>
	<path fill="#FFFFFF" d="M87.571,102.446v5.444h5.002v-6.551c0-1.129,0.262-2.198,0.729-3.155c-0.376-0.097-0.77-0.148-1.177-0.148
		C89.611,98.036,87.571,100.012,87.571,102.446z"/>
	<path fill="#FFFFFF" d="M108.939,98.035c-0.407,0-0.801,0.052-1.176,0.149c0.467,0.957,0.729,2.026,0.729,3.155v6.551h5.001v-5.444
		C113.494,100.01,111.456,98.035,108.939,98.035z"/>
	<path fill="#FFFFFF" d="M100.533,95.358c-3.652,0-6.614,2.868-6.614,6.404v6.128h13.228v-6.128
		C107.146,98.227,104.187,95.358,100.533,95.358z"/>
</g>
</svg>
