<?xml version="1.0" encoding="utf-8"?>
<!-- Generator: Adobe Illustrator 16.0.4, SVG Export Plug-In . SVG Version: 6.00 Build 0)  -->
<!DOCTYPE svg PUBLIC "-//W3C//DTD SVG 1.1//EN" "http://www.w3.org/Graphics/SVG/1.1/DTD/svg11.dtd">
<svg version="1.1" id="svg11382" xmlns:svg="http://www.w3.org/2000/svg"
	 xmlns="http://www.w3.org/2000/svg" xmlns:xlink="http://www.w3.org/1999/xlink" x="0px" y="0px" width="13.871px" height="18px"
	 viewBox="332.804 431.859 13.871 18" enable-background="new 332.804 431.859 13.871 18" xml:space="preserve">
<g id="layer1" transform="translate(-48.907487,-55.625885)">
	<g id="g11476">
		<path id="path11472" fill="#FFFFFF" d="M390.4,501.011h-3.491v-0.455c0-0.774,0.088-1.403,0.264-1.887s0.482-0.925,0.83-1.324
			c0.348-0.399,0.857-0.538,2.072-1.544c0.646-0.527,1.128-1.575,1.128-2.014c0.046-1.162-0.284-1.62-0.705-2.041
			c-0.463-0.402-1.239-0.614-1.858-0.614c-0.567,0-1.398,0.165-1.792,0.518c-0.529,0.353-1.332,1.504-1.165,2.665l-3.971,0.035
			c0-3.209,0.6-4.056,2.021-5.37c1.376-1.11,2.583-1.496,4.978-1.496c1.832,0,3.305,0.363,4.376,1.09
			c1.453,0.982,2.496,2.27,2.496,4.698c0,0.905-0.391,1.854-0.879,2.62c-0.376,0.631-1.232,1.357-2.413,2.131
			c-0.875,0.526-1.361,1.085-1.573,1.472C390.505,499.883,390.4,500.388,390.4,501.011L390.4,501.011z"/>
		<path id="path11474" fill="#FFFFFF" d="M390.583,503.993c0,0.823-0.858,1.491-1.919,1.492c-1.061,0-1.92-0.667-1.921-1.49
			c0,0,0-0.001,0-0.002c-0.001-0.823,0.858-1.491,1.918-1.491c1.06-0.001,1.92,0.666,1.921,1.489
			C390.583,503.992,390.583,503.993,390.583,503.993z"/>
	</g>
</g>
</svg>
