<?xml version="1.0" encoding="utf-8"?>
<!-- Generator: Adobe Illustrator 16.0.4, SVG Export Plug-In . SVG Version: 6.00 Build 0)  -->
<!DOCTYPE svg PUBLIC "-//W3C//DTD SVG 1.1//EN" "http://www.w3.org/Graphics/SVG/1.1/DTD/svg11.dtd">
<svg version="1.1" id="Calque_1" xmlns="http://www.w3.org/2000/svg" xmlns:xlink="http://www.w3.org/1999/xlink" x="0px" y="0px"
	 width="19.203px" height="22.807px" viewBox="90.898 89.097 19.203 22.807" enable-background="new 90.898 89.097 19.203 22.807"
	 xml:space="preserve">
<g id="Calque_2">
</g>
<g>
	<path fill="none" stroke="#FFFFFF" stroke-width="2" stroke-miterlimit="10" d="M109.102,109.703c0,0.659-0.54,1.2-1.2,1.2H93.099
		c-0.66,0-1.2-0.541-1.2-1.2V91.297c0-0.659,0.54-1.2,1.2-1.2h14.803c0.66,0,1.2,0.541,1.2,1.2V109.703z"/>
</g>
<g>
	<path fill="#FFFFFF" d="M106.609,93.589c0,0.446-0.54,0.812-1.2,0.812h-9.818c-0.66,0-1.2-0.365-1.2-0.812
		c0-0.446,0.54-0.812,1.2-0.812h9.817C106.068,92.778,106.609,93.143,106.609,93.589z"/>
</g>
<g>
	<path fill="#FFFFFF" d="M106.627,96.725c0,0.453-0.541,0.825-1.201,0.825h-9.852c-0.66,0-1.2-0.372-1.2-0.825
		c0-0.454,0.54-0.825,1.2-0.825h9.852C106.086,95.899,106.627,96.271,106.627,96.725z"/>
</g>
<g>
	<path fill="#FFFFFF" d="M106.627,99.825c0,0.453-0.541,0.825-1.201,0.825h-9.852c-0.66,0-1.2-0.372-1.2-0.825
		c0-0.454,0.54-0.825,1.2-0.825h9.852C106.086,99,106.627,99.371,106.627,99.825z"/>
</g>
</svg>
