<?xml version="1.0" encoding="utf-8"?>
<!-- Generator: Adobe Illustrator 16.0.4, SVG Export Plug-In . SVG Version: 6.00 Build 0)  -->
<!DOCTYPE svg PUBLIC "-//W3C//DTD SVG 1.1//EN" "http://www.w3.org/Graphics/SVG/1.1/DTD/svg11.dtd">
<svg version="1.1" id="Calque_1" xmlns="http://www.w3.org/2000/svg" xmlns:xlink="http://www.w3.org/1999/xlink" x="0px" y="0px"
	 width="27.295px" height="27px" viewBox="69.664 68.872 27.295 27" enable-background="new 69.664 68.872 27.295 27"
	 xml:space="preserve">
<path fill="#FFFFFF" d="M93.376,83.832c1.979,0,3.583-1.604,3.583-3.583c0-1.978-1.604-3.582-3.583-3.582
	c-0.732,0-1.412,0.22-1.979,0.597c0.341-0.548,0.539-1.196,0.539-1.889c0-1.979-1.604-3.582-3.583-3.582s-3.582,1.604-3.582,3.582
	v8.458h-8.605c-1.979,0-3.583,1.604-3.583,3.582s1.604,3.583,3.583,3.583c0.732,0,1.412-0.221,1.979-0.598
	c-0.341,0.549-0.539,1.196-0.539,1.89c0,1.979,1.604,3.582,3.583,3.582s3.583-1.604,3.583-3.582c0,1.979,1.604,3.582,3.582,3.582
	c1.979,0,3.583-1.604,3.583-3.582c0-0.693-0.198-1.341-0.539-1.89c0.567,0.377,1.248,0.598,1.979,0.598
	c1.979,0,3.583-1.604,3.583-3.583S95.355,83.832,93.376,83.832z"/>
<path fill="#FFFFFF" d="M78.269,68.872c-1.979,0-3.583,1.604-3.583,3.583c0,0.693,0.198,1.341,0.539,1.889
	c-0.567-0.377-1.248-0.597-1.979-0.597c-1.978,0-3.582,1.604-3.582,3.583c0,1.978,1.604,3.582,3.582,3.582h8.605v-8.457
	C81.851,70.476,80.247,68.872,78.269,68.872z"/>
</svg>
