<?xml version="1.0" encoding="utf-8"?>
<!-- Generator: Adobe Illustrator 16.0.4, SVG Export Plug-In . SVG Version: 6.00 Build 0)  -->
<!DOCTYPE svg PUBLIC "-//W3C//DTD SVG 1.1//EN" "http://www.w3.org/Graphics/SVG/1.1/DTD/svg11.dtd">
<svg version="1.1" id="Calque_1" xmlns="http://www.w3.org/2000/svg" xmlns:xlink="http://www.w3.org/1999/xlink" x="0px" y="0px"
	 width="55px" height="55px" viewBox="73 73 55 55" enable-background="new 73 73 55 55" xml:space="preserve">
<g id="Calque_4_-_copie">
	<path fill="#34B1BC" d="M100.5,73C85.312,73,73,85.312,73,100.5c0,15.188,12.312,27.5,27.5,27.5c15.188,0,27.5-12.312,27.5-27.5
		C128,85.312,115.688,73,100.5,73z M112.421,89.29c2.246,0,4.067,1.821,4.067,4.067c0,2.247-1.821,4.068-4.067,4.068
		s-4.067-1.821-4.067-4.068S110.175,89.29,112.421,89.29z M100.533,81.335c3.262,0,5.907,2.645,5.907,5.907
		s-2.645,5.907-5.907,5.907s-5.907-2.645-5.907-5.907S97.271,81.335,100.533,81.335z M88.645,89.29c2.246,0,4.067,1.821,4.067,4.067
		c0,2.247-1.821,4.068-4.067,4.068s-4.068-1.821-4.068-4.068S86.398,89.29,88.645,89.29z M89.277,103.184v9.261h-7.073v-7.697
		c0-3.444,2.884-6.237,6.441-6.237c0.575,0,1.132,0.073,1.663,0.21C89.647,100.074,89.277,101.587,89.277,103.184z M109.886,112.445
		H91.18v-8.664c0-5.001,4.188-9.057,9.353-9.057c5.166,0,9.353,4.055,9.353,9.057V112.445z M118.861,112.445h-7.072v-9.262
		c0-1.597-0.37-3.109-1.031-4.463c0.53-0.137,1.088-0.21,1.663-0.21c3.558,0,6.44,2.792,6.44,6.237V112.445L118.861,112.445z"/>
</g>
<g id="Calque_2">
</g>
<g id="Calque_2_-_copie">
</g>
<g id="Calque_4">
</g>
</svg>
