<?xml version="1.0" encoding="utf-8"?>
<!-- Generator: Adobe Illustrator 16.0.4, SVG Export Plug-In . SVG Version: 6.00 Build 0)  -->
<!DOCTYPE svg PUBLIC "-//W3C//DTD SVG 1.1//EN" "http://www.w3.org/Graphics/SVG/1.1/DTD/svg11.dtd">
<svg version="1.1" id="Calque_1" xmlns="http://www.w3.org/2000/svg" xmlns:xlink="http://www.w3.org/1999/xlink" x="0px" y="0px"
	 width="21.735px" height="17px" viewBox="0 0 21.735 17" enable-background="new 0 0 21.735 17" xml:space="preserve">
<g>
	<g>
		<g>
			<path fill="#FFFFFF" d="M3.066,14.946c0-0.55-0.45-1-1-1H1c-0.55,0-1,0.45-1,1V16c0,0.55,0.45,1,1,1h1.066c0.55,0,1-0.45,1-1
				V14.946z"/>
		</g>
		<g>
			<path fill="#FFFFFF" d="M5.619,13.946c-0.55,0-1,0.45-1,1V16c0,0.55,0.45,1,1,1h15.116c0.55,0,1-0.45,1-1v-1.054
				c0-0.55-0.45-1-1-1H5.619z"/>
		</g>
	</g>
</g>
<g>
	<g>
		<g>
			<path fill="#FFFFFF" d="M3.066,10.289c0-0.55-0.45-1-1-1H1c-0.55,0-1,0.45-1,1v1.054c0,0.55,0.45,1,1,1h1.066c0.55,0,1-0.45,1-1
				V10.289z"/>
		</g>
		<g>
			<path fill="#FFFFFF" d="M5.619,9.289c-0.55,0-1,0.45-1,1v1.054c0,0.55,0.45,1,1,1h15.116c0.55,0,1-0.45,1-1v-1.054
				c0-0.55-0.45-1-1-1H5.619z"/>
		</g>
	</g>
</g>
<g>
	<g>
		<g>
			<path fill="#FFFFFF" d="M3.066,5.657c0-0.55-0.45-1-1-1H1c-0.55,0-1,0.45-1,1V6.71c0,0.55,0.45,1,1,1h1.066c0.55,0,1-0.45,1-1
				V5.657z"/>
		</g>
		<g>
			<path fill="#FFFFFF" d="M5.619,4.657c-0.55,0-1,0.45-1,1V6.71c0,0.55,0.45,1,1,1h15.116c0.55,0,1-0.45,1-1V5.657
				c0-0.55-0.45-1-1-1H5.619z"/>
		</g>
	</g>
</g>
<g>
	<g>
		<g>
			<path fill="#FFFFFF" d="M3.066,1c0-0.55-0.45-1-1-1H1C0.45,0,0,0.45,0,1v1.053c0,0.55,0.45,1,1,1h1.066c0.55,0,1-0.45,1-1V1z"/>
		</g>
		<g>
			<path fill="#FFFFFF" d="M5.619,0c-0.55,0-1,0.45-1,1v1.053c0,0.55,0.45,1,1,1h15.116c0.55,0,1-0.45,1-1V1c0-0.55-0.45-1-1-1
				H5.619z"/>
		</g>
	</g>
</g>
</svg>
