<?xml version="1.0" encoding="utf-8"?>
<!-- Generator: Adobe Illustrator 16.0.4, SVG Export Plug-In . SVG Version: 6.00 Build 0)  -->
<!DOCTYPE svg PUBLIC "-//W3C//DTD SVG 1.1//EN" "http://www.w3.org/Graphics/SVG/1.1/DTD/svg11.dtd">
<svg version="1.1" id="Calque_1" xmlns="http://www.w3.org/2000/svg" xmlns:xlink="http://www.w3.org/1999/xlink" x="0px" y="0px"
	 width="29.125px" height="22.555px" viewBox="-1.664 -4.862 29.125 22.555" enable-background="new -1.664 -4.862 29.125 22.555"
	 xml:space="preserve">
<g>
	<g>
		<g>
			<path fill="#FFFFFF" d="M0.037-4.862c-0.937,0-1.702,0.651-1.702,1.445v1.522c0,0.795,0.765,1.445,1.702,1.445h25.721
				c0.938,0,1.702-0.65,1.702-1.445v-1.522c0-0.794-0.765-1.445-1.702-1.445H0.037z"/>
		</g>
	</g>
</g>
<g>
	<g>
		<g>
			<path fill="#FFFFFF" d="M0.037,13.281c-0.937,0-1.702,0.65-1.702,1.445v1.521c0,0.795,0.765,1.445,1.702,1.445h25.721
				c0.938,0,1.702-0.65,1.702-1.445v-1.521c0-0.795-0.765-1.445-1.702-1.445H0.037z"/>
		</g>
	</g>
</g>
<g>
	<g>
		<g>
			<path fill="#FFFFFF" d="M0.037,4.21c-0.937,0-1.702,0.65-1.702,1.445v1.522c0,0.794,0.765,1.446,1.702,1.446h25.721
				c0.938,0,1.702-0.652,1.702-1.446V5.655c0-0.795-0.765-1.445-1.702-1.445H0.037z"/>
		</g>
	</g>
</g>
</svg>
