<?xml version="1.0" encoding="utf-8"?>
<!-- Generator: Adobe Illustrator 16.0.4, SVG Export Plug-In . SVG Version: 6.00 Build 0)  -->
<!DOCTYPE svg PUBLIC "-//W3C//DTD SVG 1.1//EN" "http://www.w3.org/Graphics/SVG/1.1/DTD/svg11.dtd">
<svg version="1.1" id="Calque_3" xmlns="http://www.w3.org/2000/svg" xmlns:xlink="http://www.w3.org/1999/xlink" x="0px" y="0px"
	 width="21.303px" height="23px" viewBox="171.172 541.236 21.303 23" enable-background="new 171.172 541.236 21.303 23"
	 xml:space="preserve">
<path fill="#FFFFFF" d="M185.899,544.288v4.034c1.773,1.238,2.931,3.26,2.931,5.546c0,3.768-3.137,6.82-7.007,6.82
	c-3.868,0-7.007-3.053-7.007-6.82c0-2.286,1.159-4.311,2.933-5.548v-4.033c-3.858,1.557-6.576,5.26-6.576,9.581
	c0,5.726,4.771,10.368,10.652,10.368s10.65-4.643,10.65-10.368C192.475,549.548,189.757,545.845,185.899,544.288z"/>
<path fill="#FFFFFF" d="M180.348,552c0,1.032,0.66,1.868,1.475,1.868l0,0c0.813,0,1.475-0.837,1.475-1.868v-8.896
	c0-1.033-0.661-1.868-1.475-1.868l0,0c-0.812,0-1.475,0.838-1.475,1.868V552z"/>
</svg>
