<?xml version="1.0" encoding="utf-8"?>
<!-- Generator: Adobe Illustrator 16.0.4, SVG Export Plug-In . SVG Version: 6.00 Build 0)  -->
<!DOCTYPE svg PUBLIC "-//W3C//DTD SVG 1.1//EN" "http://www.w3.org/Graphics/SVG/1.1/DTD/svg11.dtd">
<svg version="1.1" id="Layer_1" xmlns="http://www.w3.org/2000/svg" xmlns:xlink="http://www.w3.org/1999/xlink" x="0px" y="0px"
	 width="16.625px" height="19px" viewBox="239.062 237.5 16.625 19" enable-background="new 239.062 237.5 16.625 19"
	 xml:space="preserve">
<path fill="#FFFFFF" d="M254.312,241.75h-2.438v-2.25c0-0.829-0.671-1.5-1.498-1.5h-6.001c-0.829,0-1.499,0.671-1.499,1.5v2.25
	h-2.438c-0.518,0-0.938,0.419-0.938,0.937c0,0.519,0.42,0.938,0.938,0.938H241v10.874c0,0.83,0.671,1.501,1.498,1.501h9.752
	c0.829,0,1.5-0.672,1.5-1.501v-10.874h0.561c0.518,0,0.939-0.42,0.939-0.938C255.252,242.172,254.83,241.75,254.312,241.75z
	 M250.002,241.75h-5.252v-1.051c0-0.458,0.369-0.824,0.825-0.824h3.601c0.458,0,0.824,0.367,0.824,0.824v1.051H250.002z
	 M244.75,244.375v9c0,0.413-0.337,0.75-0.75,0.75c-0.412,0-0.748-0.337-0.748-0.75v-9c0-0.413,0.336-0.75,0.748-0.75
	C244.413,243.625,244.75,243.962,244.75,244.375z M248.125,244.375v9c0,0.413-0.337,0.75-0.749,0.75
	c-0.413,0-0.751-0.337-0.751-0.75v-9c0-0.413,0.338-0.75,0.751-0.75C247.788,243.625,248.125,243.962,248.125,244.375z
	 M251.5,244.375v9c0,0.413-0.337,0.75-0.75,0.75c-0.412,0-0.748-0.337-0.748-0.75v-9c0-0.413,0.336-0.75,0.748-0.75
	C251.163,243.625,251.5,243.962,251.5,244.375z"/>
</svg>
